<svg style="display: none;" aria-hidden="true" xmlns="http://www.w3.org/2000/svg" xmlns:xlink="http://www.w3.org/1999/xlink"><symbol viewBox="0 0 18 12" fill="none" id="svg-arrow-right" xmlns="http://www.w3.org/2000/svg">
<path fill-rule="evenodd" clip-rule="evenodd" d="M11.4697 0.96967C11.1768 1.26256 11.1768 1.73744 11.4697 2.03033L14.6893 5.25H1.5C1.08579 5.25 0.75 5.58579 0.75 6C0.75 6.41421 1.08579 6.75 1.5 6.75H14.6893L11.4697 9.96967C11.1768 10.2626 11.1768 10.7374 11.4697 11.0303C11.7626 11.3232 12.2374 11.3232 12.5303 11.0303L17.0303 6.53033C17.3232 6.23744 17.3232 5.76256 17.0303 5.46967L12.5303 0.96967C12.2374 0.676777 11.7626 0.676777 11.4697 0.96967Z" fill="#7F713E"/>
</symbol><symbol viewBox="0 0 16 16" fill="none" id="svg-arrow-right-item" xmlns="http://www.w3.org/2000/svg">
<path d="M9.62012 3.95312L13.6668 7.99979L9.62012 12.0465" stroke="#7F713E" stroke-miterlimit="10" stroke-linecap="round" stroke-linejoin="round"/>
<path d="M2.3335 8H13.5535" stroke="#7F713E" stroke-miterlimit="10" stroke-linecap="round" stroke-linejoin="round"/>
</symbol>
<symbol viewBox="0 0 14 14"  id="svg-arrow-slider-left" xmlns="http://www.w3.org/2000/svg">
<path d="M5.70386 3.76172L2.46652 6.99905L5.70386 10.2364"  stroke-width="0.8" stroke-miterlimit="10" stroke-linecap="round" stroke-linejoin="round"/>
<path d="M11.5332 7H2.5572"  stroke-width="0.8" stroke-miterlimit="10" stroke-linecap="round" stroke-linejoin="round"/>
</symbol>
<symbol viewBox="0 0 14 14"  id="svg-arrow-slider-right" xmlns="http://www.w3.org/2000/svg">
<path d="M8.29614 3.76172L11.5335 6.99905L8.29614 10.2364"  stroke-width="0.8" stroke-miterlimit="10" stroke-linecap="round" stroke-linejoin="round"/>
<path d="M2.4668 7H11.4428"  stroke-width="0.8" stroke-miterlimit="10" stroke-linecap="round" stroke-linejoin="round"/>
</symbol>
<symbol viewBox="0 0 22 16" fill="none" id="svg-carcas" xmlns="http://www.w3.org/2000/svg">
<path d="M9 5C9 5.55228 8.55229 6 8 6C7.44772 6 7 5.55228 7 5C7 4.44772 7.44772 4 8 4C8.55229 4 9 4.44772 9 5Z" fill="#7F713E"/>
<path d="M14 6C14.5523 6 15 5.55228 15 5C15 4.44772 14.5523 4 14 4C13.4477 4 13 4.44772 13 5C13 5.55228 13.4477 6 14 6Z" fill="#7F713E"/>
<path fill-rule="evenodd" clip-rule="evenodd" d="M3 0C2.44772 0 2 0.447715 2 1V6H1C0.447715 6 0 6.44772 0 7V15C0 15.5523 0.447715 16 1 16H21C21.5523 16 22 15.5523 22 15V7C22 6.44772 21.5523 6 21 6H20V1C20 0.447715 19.5523 0 19 0H3ZM18 2H4V6H5C5.55228 6 6 6.44772 6 7V9H16V7C16 6.44772 16.4477 6 17 6H18V2ZM2 8V14H4V8H2ZM16 14H6V11H16V14ZM18 14V8H20V14H18Z" fill="#7F713E"/>
</symbol><symbol viewBox="0 0 16 17" fill="none" id="svg-close-btn" xmlns="http://www.w3.org/2000/svg">
<path fill-rule="evenodd" clip-rule="evenodd" d="M15.6095 2.35671C16.1302 1.83601 16.1302 0.99179 15.6095 0.471091C15.0888 -0.0496083 14.2446 -0.0496083 13.7239 0.471091L8 6.19495L2.27614 0.471092C1.75544 -0.0496071 0.911223 -0.0496071 0.390524 0.471092C-0.130175 0.991791 -0.130175 1.83601 0.390524 2.35671L6.11438 8.08057L0.390524 13.8044C-0.130175 14.3251 -0.130175 15.1693 0.390524 15.69C0.911223 16.2107 1.75544 16.2107 2.27614 15.69L8 9.96619L13.7239 15.69C14.2446 16.2107 15.0888 16.2107 15.6095 15.69C16.1302 15.1693 16.1302 14.3251 15.6095 13.8044L9.88562 8.08057L15.6095 2.35671Z" fill="#BFBFBF"/>
</symbol><symbol viewBox="0 0 20 21" fill="none" id="svg-deadline" xmlns="http://www.w3.org/2000/svg">
<path fill-rule="evenodd" clip-rule="evenodd" d="M13 0C12.4477 0 12 0.447715 12 1H8C8 0.447715 7.55228 0 7 0H5C4.44772 0 4 0.447715 4 1H3C1.34315 1 0 2.34315 0 4V18C0 19.6569 1.34315 21 3 21H17C18.6569 21 20 19.6569 20 18V4C20 2.34315 18.6569 1 17 1H16C16 0.447715 15.5523 0 15 0H13ZM3 3C2.44772 3 2 3.44772 2 4V5H18V4C18 3.44772 17.5523 3 17 3H3ZM2 18V7H18V18C18 18.5523 17.5523 19 17 19H3C2.44772 19 2 18.5523 2 18ZM3.5 10C3.5 9.44771 3.94772 9 4.5 9H5.5C6.05228 9 6.5 9.44772 6.5 10V11C6.5 11.5523 6.05228 12 5.5 12H4.5C3.94772 12 3.5 11.5523 3.5 11V10ZM3.5 15C3.5 14.4477 3.94772 14 4.5 14H5.5C6.05228 14 6.5 14.4477 6.5 15V16C6.5 16.5523 6.05228 17 5.5 17H4.5C3.94772 17 3.5 16.5523 3.5 16V15ZM8.5 10C8.5 9.44771 8.94772 9 9.5 9H10.5C11.0523 9 11.5 9.44772 11.5 10V11C11.5 11.5523 11.0523 12 10.5 12H9.5C8.94772 12 8.5 11.5523 8.5 11V10ZM8.5 15C8.5 14.4477 8.94772 14 9.5 14H10.5C11.0523 14 11.5 14.4477 11.5 15V16C11.5 16.5523 11.0523 17 10.5 17H9.5C8.94772 17 8.5 16.5523 8.5 16V15ZM13.5 10C13.5 9.44771 13.9477 9 14.5 9H15.5C16.0523 9 16.5 9.44772 16.5 10V11C16.5 11.5523 16.0523 12 15.5 12H14.5C13.9477 12 13.5 11.5523 13.5 11V10ZM13.5 15C13.5 14.4477 13.9477 14 14.5 14H15.5C16.0523 14 16.5 14.4477 16.5 15V16C16.5 16.5523 16.0523 17 15.5 17H14.5C13.9477 17 13.5 16.5523 13.5 16V15Z" fill="#7F713E"/>
</symbol><symbol viewBox="0 0 26 20" fill="none" id="svg-email" xmlns="http://www.w3.org/2000/svg">
<path fill-rule="evenodd" clip-rule="evenodd" d="M3.66663 0.666504C1.73363 0.666504 0.166626 2.23351 0.166626 4.1665V15.8332C0.166626 17.7662 1.73363 19.3332 3.66663 19.3332H22.3333C24.2663 19.3332 25.8333 17.7662 25.8333 15.8332V4.1665C25.8333 2.23351 24.2663 0.666504 22.3333 0.666504H3.66663ZM2.49996 4.47785V15.8332C2.49996 16.4775 3.02229 16.9998 3.66663 16.9998H22.3333C22.9776 16.9998 23.5 16.4775 23.5 15.8332V4.47794L15.1488 10.9733C13.8849 11.9563 12.1151 11.9563 10.8512 10.9733L2.49996 4.47785ZM21.5998 2.99984H4.40024L12.2838 9.13146C12.705 9.45913 13.295 9.45913 13.7163 9.13146L21.5998 2.99984Z" fill="#7F713E"/>
</symbol><symbol viewBox="0 0 24 24" fill="none" id="svg-facebook" xmlns="http://www.w3.org/2000/svg">
<path d="M12 2C6.477 2 2 6.477 2 12C2 16.991 5.657 21.128 10.438 21.879V14.89H7.898V12H10.438V9.797C10.438 7.291 11.93 5.907 14.215 5.907C15.309 5.907 16.453 6.102 16.453 6.102V8.562H15.193C13.95 8.562 13.563 9.333 13.563 10.124V12H16.336L15.893 14.89H13.563V21.879C18.343 21.129 22 16.99 22 12C22 6.477 17.523 2 12 2Z" fill="white"/>
</symbol><symbol viewBox="0 0 24 24" fill="none" id="svg-instagram" xmlns="http://www.w3.org/2000/svg">
<path d="M12 2C14.717 2 15.056 2.01 16.122 2.06C17.187 2.11 17.912 2.277 18.55 2.525C19.21 2.779 19.766 3.123 20.322 3.678C20.8305 4.1779 21.224 4.78259 21.475 5.45C21.722 6.087 21.89 6.813 21.94 7.878C21.987 8.944 22 9.283 22 12C22 14.717 21.99 15.056 21.94 16.122C21.89 17.187 21.722 17.912 21.475 18.55C21.2247 19.2178 20.8311 19.8226 20.322 20.322C19.822 20.8303 19.2173 21.2238 18.55 21.475C17.913 21.722 17.187 21.89 16.122 21.94C15.056 21.987 14.717 22 12 22C9.283 22 8.944 21.99 7.878 21.94C6.813 21.89 6.088 21.722 5.45 21.475C4.78233 21.2245 4.17753 20.8309 3.678 20.322C3.16941 19.8222 2.77593 19.2175 2.525 18.55C2.277 17.913 2.11 17.187 2.06 16.122C2.013 15.056 2 14.717 2 12C2 9.283 2.01 8.944 2.06 7.878C2.11 6.812 2.277 6.088 2.525 5.45C2.77524 4.78218 3.1688 4.17732 3.678 3.678C4.17767 3.16923 4.78243 2.77573 5.45 2.525C6.088 2.277 6.812 2.11 7.878 2.06C8.944 2.013 9.283 2 12 2ZM12 7C10.6739 7 9.40215 7.52678 8.46447 8.46447C7.52678 9.40215 7 10.6739 7 12C7 13.3261 7.52678 14.5979 8.46447 15.5355C9.40215 16.4732 10.6739 17 12 17C13.3261 17 14.5979 16.4732 15.5355 15.5355C16.4732 14.5979 17 13.3261 17 12C17 10.6739 16.4732 9.40215 15.5355 8.46447C14.5979 7.52678 13.3261 7 12 7ZM18.5 6.75C18.5 6.41848 18.3683 6.10054 18.1339 5.86612C17.8995 5.6317 17.5815 5.5 17.25 5.5C16.9185 5.5 16.6005 5.6317 16.3661 5.86612C16.1317 6.10054 16 6.41848 16 6.75C16 7.08152 16.1317 7.39946 16.3661 7.63388C16.6005 7.8683 16.9185 8 17.25 8C17.5815 8 17.8995 7.8683 18.1339 7.63388C18.3683 7.39946 18.5 7.08152 18.5 6.75ZM12 9C12.7956 9 13.5587 9.31607 14.1213 9.87868C14.6839 10.4413 15 11.2044 15 12C15 12.7956 14.6839 13.5587 14.1213 14.1213C13.5587 14.6839 12.7956 15 12 15C11.2044 15 10.4413 14.6839 9.87868 14.1213C9.31607 13.5587 9 12.7956 9 12C9 11.2044 9.31607 10.4413 9.87868 9.87868C10.4413 9.31607 11.2044 9 12 9Z" fill="white"/>
</symbol><symbol viewBox="0 0 20 25" fill="none" id="svg-location" xmlns="http://www.w3.org/2000/svg">
<path fill-rule="evenodd" clip-rule="evenodd" d="M10.8407 24.4752C10.6207 24.7038 10.3172 24.833 9.99996 24.833C9.68274 24.833 9.37885 24.7035 9.1589 24.4749L9.05878 24.3693C9.05878 24.3693 8.90495 24.2052 8.78992 24.08C8.55993 23.8296 8.23332 23.4677 7.84224 23.0164C7.06122 22.1151 6.0175 20.8511 4.97114 19.4037C3.92743 17.96 2.86468 16.3112 2.05871 14.6419C1.26154 12.9907 0.666626 11.2207 0.666626 9.56028C0.666626 4.44987 4.85973 0.333008 9.99996 0.333008C15.1402 0.333008 19.3333 4.44987 19.3333 9.56028C19.3333 11.2207 18.7384 12.9907 17.9412 14.6419C17.1352 16.3112 16.0725 17.96 15.0288 19.4037C13.9824 20.8511 12.9387 22.1151 12.1577 23.0164C11.7666 23.4677 11.44 23.8296 11.21 24.08C11.21 24.08 10.9035 24.4085 10.8407 24.4752ZM2.99996 9.56028C2.99996 5.76719 6.11954 2.66634 9.99996 2.66634C13.8804 2.66634 17 5.76719 17 9.56028C17 10.7091 16.574 12.1069 15.84 13.6274C15.1147 15.1296 14.1358 16.6563 13.1378 18.0367C12.1425 19.4135 11.1446 20.6226 10.3943 21.4883C10.2534 21.651 10.1213 21.8013 9.99996 21.9381C9.87857 21.8013 9.74656 21.651 9.60559 21.4883C8.85537 20.6226 7.85742 19.4135 6.86211 18.0367C5.86415 16.6563 4.88524 15.1296 4.15996 13.6274C3.42587 12.1069 2.99996 10.7091 2.99996 9.56028Z" fill="#7F713E"/>
<path fill-rule="evenodd" clip-rule="evenodd" d="M6.49996 9.66634C6.49996 7.73334 8.06696 6.16634 9.99996 6.16634C11.933 6.16634 13.5 7.73334 13.5 9.66634C13.5 11.5993 11.933 13.1663 9.99996 13.1663C8.06696 13.1663 6.49996 11.5993 6.49996 9.66634ZM8.83329 9.66634C8.83329 9.02201 9.35563 8.49967 9.99996 8.49967C10.6443 8.49967 11.1666 9.02201 11.1666 9.66634C11.1666 10.3107 10.6443 10.833 9.99996 10.833C9.35563 10.833 8.83329 10.3107 8.83329 9.66634Z" fill="#7F713E"/>
</symbol><symbol viewBox="0 0 22 18" fill="none" id="svg-material" xmlns="http://www.w3.org/2000/svg">
<path d="M14 5.25C14.4142 5.25 14.75 4.91421 14.75 4.5C14.75 4.08579 14.4142 3.75 14 3.75C13.5858 3.75 13.25 4.08579 13.25 4.5C13.25 4.91421 13.5858 5.25 14 5.25Z" fill="#7F713E"/>
<path d="M17 5.25C17.4142 5.25 17.75 4.91421 17.75 4.5C17.75 4.08579 17.4142 3.75 17 3.75C16.5858 3.75 16.25 4.08579 16.25 4.5C16.25 4.91421 16.5858 5.25 17 5.25Z" fill="#7F713E"/>
<path d="M14.75 7.5C14.75 7.91421 14.4142 8.25 14 8.25C13.5858 8.25 13.25 7.91421 13.25 7.5C13.25 7.08579 13.5858 6.75 14 6.75C14.4142 6.75 14.75 7.08579 14.75 7.5Z" fill="#7F713E"/>
<path d="M17 8.25C17.4142 8.25 17.75 7.91421 17.75 7.5C17.75 7.08579 17.4142 6.75 17 6.75C16.5858 6.75 16.25 7.08579 16.25 7.5C16.25 7.91421 16.5858 8.25 17 8.25Z" fill="#7F713E"/>
<path d="M14.75 10.5C14.75 10.9142 14.4142 11.25 14 11.25C13.5858 11.25 13.25 10.9142 13.25 10.5C13.25 10.0858 13.5858 9.75 14 9.75C14.4142 9.75 14.75 10.0858 14.75 10.5Z" fill="#7F713E"/>
<path d="M17 11.25C17.4142 11.25 17.75 10.9142 17.75 10.5C17.75 10.0858 17.4142 9.75 17 9.75C16.5858 9.75 16.25 10.0858 16.25 10.5C16.25 10.9142 16.5858 11.25 17 11.25Z" fill="#7F713E"/>
<path d="M14.75 13.5C14.75 13.9142 14.4142 14.25 14 14.25C13.5858 14.25 13.25 13.9142 13.25 13.5C13.25 13.0858 13.5858 12.75 14 12.75C14.4142 12.75 14.75 13.0858 14.75 13.5Z" fill="#7F713E"/>
<path d="M17 14.25C17.4142 14.25 17.75 13.9142 17.75 13.5C17.75 13.0858 17.4142 12.75 17 12.75C16.5858 12.75 16.25 13.0858 16.25 13.5C16.25 13.9142 16.5858 14.25 17 14.25Z" fill="#7F713E"/>
<path fill-rule="evenodd" clip-rule="evenodd" d="M0.29292 0.29292C0.560753 0.0250881 0.95692 -0.0684344 1.31625 0.0513438L4.05435 0.964043C4.17625 0.937653 4.33522 0.903763 4.52451 0.864558C4.98454 0.769283 5.62549 0.642244 6.34991 0.515085C7.77956 0.264141 9.60332 2.7155e-05 11 2.7155e-05C12.3967 2.7155e-05 14.2205 0.264141 15.6501 0.515085C16.3746 0.642244 17.0155 0.769283 17.4755 0.864558C17.6648 0.903763 17.8238 0.937653 17.9457 0.964043L20.6838 0.0513438C21.0431 -0.0684344 21.4393 0.0250881 21.7071 0.29292C21.975 0.560753 22.0685 0.95692 21.9487 1.31625L21.0497 4.01327C21.0697 4.08022 21.0922 4.15663 21.1167 4.24136C21.2133 4.5745 21.3421 5.03879 21.4711 5.56401C21.7225 6.58716 22 7.93921 22 9.00003C22 10.0608 21.7225 11.4129 21.4711 12.436C21.3421 12.9613 21.2133 13.4256 21.1167 13.7587C21.0922 13.8434 21.0697 13.9198 21.0497 13.9868L21.9487 16.6838C22.0685 17.0431 21.975 17.4393 21.7071 17.7071C21.4393 17.975 21.0431 18.0685 20.6838 17.9487L17.9454 17.0359C17.823 17.0623 17.6633 17.0963 17.4731 17.1356C17.012 17.2309 16.3698 17.3579 15.6446 17.485C14.2136 17.7359 12.3897 18 11 18C9.61038 18 7.78646 17.7359 6.35549 17.485C5.63027 17.3579 4.98806 17.2309 4.527 17.1356C4.33673 17.0963 4.177 17.0623 4.05466 17.0359L1.31625 17.9487C0.95692 18.0685 0.560753 17.975 0.29292 17.7071C0.0250881 17.4393 -0.0684344 17.0431 0.0513438 16.6838L0.950094 13.9875C0.930276 13.9214 0.907961 13.846 0.883652 13.7626C0.787027 13.4307 0.658153 12.968 0.529038 12.4437C0.277368 11.4218 2.71531e-05 10.0701 2.71531e-05 9.00003C2.71531e-05 7.92992 0.277368 6.57827 0.529038 5.55634C0.658153 5.03206 0.787027 4.56934 0.883652 4.2375C0.907961 4.15401 0.930276 4.07865 0.950094 4.01251L0.0513438 1.31625C-0.0684344 0.95692 0.0250881 0.560753 0.29292 0.29292ZM2.95234 4.30514L2.95032 4.31149L2.94284 4.3352C2.93612 4.35661 2.926 4.38905 2.91297 4.43145C2.88691 4.51629 2.84927 4.64083 2.8039 4.79664C2.71303 5.10873 2.5919 5.54373 2.47102 6.03459C2.22269 7.04295 2.00003 8.19131 2.00003 9.00003C2.00003 9.80875 2.22269 10.9571 2.47102 11.9655C2.5919 12.4563 2.71303 12.8913 2.8039 13.2034C2.84927 13.3592 2.88691 13.4838 2.91297 13.5686C2.926 13.611 2.93612 13.6434 2.94284 13.6649L2.95032 13.6886L2.95234 13.6949C3.0171 13.8971 3.01585 14.1148 2.94871 14.3163L2.58117 15.4189L3.6838 15.0513C3.85714 14.9936 4.04299 14.9844 4.22118 15.0248L4.232 15.0272L4.26734 15.0351C4.29885 15.0421 4.34598 15.0525 4.40723 15.0659C4.52974 15.0926 4.70858 15.1309 4.93165 15.177C5.37815 15.2692 6.00002 15.3922 6.70084 15.515C7.75954 15.7006 8.95973 15.8789 10 15.9577V2.04204C8.95581 2.12072 7.75414 2.29918 6.69569 2.48497C5.99586 2.60781 5.37542 2.73077 4.93012 2.823C4.70765 2.86907 4.52935 2.90738 4.40723 2.93404C4.34618 2.94737 4.29921 2.95778 4.26782 2.96479L4.23262 2.97268L4.22224 2.97502C4.04385 3.01561 3.85736 3.00656 3.6838 2.94871L2.58117 2.58117L2.94871 3.6838C3.01585 3.88523 3.0171 4.10293 2.95234 4.30514ZM15.2992 15.515C14.2405 15.7007 13.0403 15.8789 12 15.9577V2.04203C13.0442 2.12071 14.2459 2.29918 15.3044 2.48497C16.0042 2.60781 16.6246 2.73077 17.0699 2.823C17.2924 2.86907 17.4707 2.90738 17.5928 2.93404C17.6539 2.94737 17.7008 2.95778 17.7322 2.96479L17.7674 2.97268L17.7782 2.97511C17.9566 3.0157 18.1427 3.00656 18.3163 2.94871L19.4189 2.58117L19.0513 3.6838C18.9844 3.88466 18.983 4.10171 19.0472 4.30346L19.0492 4.30992L19.0567 4.33383C19.0635 4.35542 19.0736 4.3881 19.0866 4.43078C19.1127 4.51619 19.1504 4.64149 19.1958 4.79813C19.2867 5.1119 19.408 5.5489 19.5289 6.04121C19.7775 7.05311 20 8.20106 20 9.00003C20 9.79899 19.7775 10.9469 19.5289 11.9588C19.408 12.4512 19.2867 12.8882 19.1958 13.2019C19.1504 13.3586 19.1127 13.4839 19.0866 13.5693C19.0736 13.612 19.0635 13.6446 19.0567 13.6662L19.0492 13.6901L19.0471 13.6967C18.9829 13.8985 18.9844 14.1154 19.0513 14.3163L19.4189 15.4189L18.3163 15.0513C18.1429 14.9936 17.9567 14.9845 17.7785 15.0249L17.7681 15.0272L17.7327 15.0351L17.6523 15.0529L17.5928 15.0659C17.4703 15.0926 17.2915 15.1309 17.0684 15.177C16.6219 15.2692 16 15.3922 15.2992 15.515Z" fill="#7F713E"/>
</symbol><symbol viewBox="0 0 28 28" fill="none" id="svg-phone" xmlns="http://www.w3.org/2000/svg">
<path d="M14 22.167C14.9665 22.167 15.75 21.3835 15.75 20.417C15.75 19.4505 14.9665 18.667 14 18.667C13.0335 18.667 12.25 19.4505 12.25 20.417C12.25 21.3835 13.0335 22.167 14 22.167Z" fill="#7F713E"/>
<path fill-rule="evenodd" clip-rule="evenodd" d="M8.16663 26.8337C6.23363 26.8337 4.66663 25.2667 4.66663 23.3337V4.66699C4.66663 2.734 6.23363 1.16699 8.16663 1.16699H19.8333C21.7663 1.16699 23.3333 2.73399 23.3333 4.66699V23.3337C23.3333 25.2667 21.7663 26.8337 19.8333 26.8337H8.16663ZM6.99996 23.3337C6.99996 23.978 7.52229 24.5003 8.16663 24.5003H19.8333C20.4776 24.5003 21 23.978 21 23.3337L21 4.66699C21 4.02266 20.4776 3.50032 19.8333 3.50032L8.16663 3.50033C7.52229 3.50033 6.99996 4.02266 6.99996 4.66699L6.99996 23.3337Z" fill="#7F713E"/>
</symbol><symbol viewBox="0 0 21 20" fill="none" id="svg-pinterest" xmlns="http://www.w3.org/2000/svg">
<path d="M11.3701 0.0943212C8.97736 -0.234824 6.54634 0.312873 4.52592 1.63628C2.5055 2.95969 1.03214 4.96942 0.377895 7.29439C-0.276351 9.61935 -0.067296 12.1025 0.966459 14.2854C2.00021 16.4682 3.78885 18.2033 6.0021 19.1703C5.94224 18.4021 5.99718 17.6293 6.1651 16.8773C6.3501 16.0383 7.4611 11.4143 7.4611 11.4143C7.23986 10.9184 7.1293 10.3803 7.1371 9.83732C7.1371 8.35232 7.9941 7.24432 9.0601 7.24432C9.2516 7.24153 9.44146 7.28002 9.61677 7.35715C9.79208 7.43429 9.94872 7.54827 10.076 7.69134C10.2034 7.83442 10.2984 8.00323 10.3547 8.18631C10.4109 8.36939 10.4271 8.56243 10.4021 8.75232C10.4021 9.65232 9.8241 11.0143 9.5221 12.2923C9.46241 12.5267 9.45862 12.7718 9.51104 13.0079C9.56345 13.2441 9.6706 13.4645 9.82385 13.6517C9.97711 13.8388 10.1722 13.9873 10.3933 14.0852C10.6145 14.1831 10.8555 14.2277 11.0971 14.2153C12.9951 14.2153 14.2671 11.7843 14.2671 8.91432C14.2671 6.71432 12.8101 5.06632 10.1241 5.06632C9.48147 5.04135 8.84048 5.14724 8.24003 5.37757C7.63958 5.60791 7.09221 5.95787 6.63115 6.40621C6.17008 6.85455 5.80495 7.39192 5.55792 7.9857C5.31089 8.57947 5.18711 9.21725 5.1941 9.86032C5.16546 10.5736 5.3956 11.2733 5.8421 11.8303C5.92553 11.8926 5.98645 11.9803 6.01567 12.0803C6.04489 12.1802 6.04083 12.2869 6.0041 12.3843C5.9581 12.5683 5.8421 13.0073 5.7961 13.1683C5.78653 13.2229 5.76427 13.2745 5.73112 13.3189C5.69797 13.3634 5.65484 13.3994 5.60523 13.4241C5.55561 13.4488 5.50088 13.4615 5.44545 13.4612C5.39002 13.4609 5.33544 13.4476 5.2861 13.4223C3.9021 12.8683 3.2501 11.3453 3.2501 9.60632C3.2501 6.75932 5.6341 3.35132 10.4041 3.35132C14.2001 3.35132 16.7241 6.12832 16.7241 9.09832C16.7241 13.0073 14.5471 15.9463 11.3301 15.9463C10.8493 15.9617 10.3724 15.8556 9.94343 15.6378C9.51449 15.42 9.1474 15.0976 8.8761 14.7003C8.8761 14.7003 8.2981 17.0163 8.1841 17.4543C7.95139 18.211 7.608 18.9291 7.1651 19.5853C8.0881 19.8653 9.0471 20.0053 10.0111 20.0013C11.3247 20.0024 12.6256 19.7443 13.8393 19.2419C15.053 18.7395 16.1556 18.0026 17.0842 17.0734C18.0127 16.1443 18.7488 15.0411 19.2504 13.827C19.7519 12.613 20.0091 11.3119 20.0071 9.99832C20.0059 7.58332 19.1309 5.25032 17.5437 3.4301C15.9566 1.60988 13.7644 0.425386 11.3721 0.0953211L11.3701 0.0943212Z" fill="white"/>
</symbol><symbol viewBox="0 0 14 16" fill="none" id="svg-play-btn" xmlns="http://www.w3.org/2000/svg">
<path d="M13.3998 8.00005L0.799805 15.2L0.799805 0.800049L13.3998 8.00005Z" fill="white"/>
</symbol><symbol viewBox="0 0 24 21" fill="none" id="svg-scale" xmlns="http://www.w3.org/2000/svg">
<path fill-rule="evenodd" clip-rule="evenodd" d="M9.78307 0.023936C10.2615 -0.0823798 10.7465 0.173694 10.9285 0.628732L12 3.30754L13.0715 0.628732C13.2535 0.173694 13.7385 -0.0823798 14.2169 0.023936L23.2169 2.02394C23.5033 2.08758 23.7473 2.27377 23.8843 2.5332C24.0213 2.79263 24.0374 3.09912 23.9285 3.37151L22.077 8.00012L23.9285 12.6287C24.0374 12.9011 24.0213 13.2076 23.8843 13.467C23.7473 13.7265 23.5033 13.9127 23.2169 13.9763L22 14.2467V18C22 18.4687 21.6745 18.8745 21.2169 18.9762L12.2175 20.9761C12.2027 20.9794 12.1872 20.9824 12.1724 20.985C12.0448 21.0074 11.9126 21.005 11.7831 20.9762L2.78307 18.9762C2.32553 18.8745 2 18.4687 2 18V14.2467L0.78307 13.9763C0.496683 13.9127 0.252688 13.7265 0.115704 13.467C-0.0212797 13.2076 -0.0374322 12.9011 0.071524 12.6287L1.92297 8.00012L0.071524 3.37151C-0.0374322 3.09912 -0.0212797 2.79263 0.115704 2.5332C0.252688 2.27377 0.496683 2.08758 0.78307 2.02394L9.78307 0.023936ZM11 15.1927L10.9285 15.3715C10.7465 15.8266 10.2615 16.0826 9.78307 15.9763L4 14.6912V17.1978L11 18.7534V15.1927ZM13 18.7534V15.1927L13.0715 15.3715C13.2535 15.8266 13.7385 16.0826 14.2169 15.9763L20 14.6912V17.1978L13 18.7534ZM7.61003 8.00007L12 8.97561L16.39 8.00007L12 7.02452L7.61003 8.00007ZM2.36542 3.72109L3.6128 6.83955L10.6346 5.27916L9.3872 2.1607L2.36542 3.72109ZM14.6128 2.1607L13.3654 5.27916L20.3872 6.83955L21.6346 3.72109L14.6128 2.1607ZM13.3654 10.7211L14.6128 13.8396L21.6346 12.2792L20.3872 9.1607L13.3654 10.7211ZM2.36542 12.2792L3.6128 9.1607L10.6346 10.7211L9.3872 13.8396L2.36542 12.2792Z" fill="#7F713E"/>
</symbol><symbol viewBox="0 0 22 22" fill="none" id="svg-textile" xmlns="http://www.w3.org/2000/svg">
<path d="M5 4C4.44772 4 4 4.44772 4 5V5.5C4 6.05228 4.44772 6.5 5 6.5C5.40555 6.5 5.75471 6.25858 5.91162 5.91162C6.25858 5.75471 6.5 5.40555 6.5 5C6.5 4.44772 6.05229 4 5.5 4H5Z" fill="#7F713E"/>
<path d="M8.5 4C7.94772 4 7.5 4.44772 7.5 5C7.5 5.55228 7.94772 6 8.5 6H9.5C10.0523 6 10.5 5.55228 10.5 5C10.5 4.44772 10.0523 4 9.5 4H8.5Z" fill="#7F713E"/>
<path d="M12.5 4C11.9477 4 11.5 4.44772 11.5 5C11.5 5.55228 11.9477 6 12.5 6H13.5C14.0523 6 14.5 5.55228 14.5 5C14.5 4.44772 14.0523 4 13.5 4H12.5Z" fill="#7F713E"/>
<path d="M16.5 4C15.9477 4 15.5 4.44772 15.5 5C15.5 5.40555 15.7414 5.75471 16.0884 5.91162C16.2453 6.25858 16.5944 6.5 17 6.5C17.5523 6.5 18 6.05229 18 5.5V5C18 4.44772 17.5523 4 17 4H16.5Z" fill="#7F713E"/>
<path d="M6 8.5C6 7.94771 5.55228 7.5 5 7.5C4.44772 7.5 4 7.94771 4 8.5V9.5C4 10.0523 4.44772 10.5 5 10.5C5.55228 10.5 6 10.0523 6 9.5V8.5Z" fill="#7F713E"/>
<path d="M18 8.5C18 7.94772 17.5523 7.5 17 7.5C16.4477 7.5 16 7.94772 16 8.5V9.5C16 10.0523 16.4477 10.5 17 10.5C17.5523 10.5 18 10.0523 18 9.5V8.5Z" fill="#7F713E"/>
<path d="M6 12.5C6 11.9477 5.55228 11.5 5 11.5C4.44772 11.5 4 11.9477 4 12.5V13.5C4 14.0523 4.44772 14.5 5 14.5C5.55228 14.5 6 14.0523 6 13.5V12.5Z" fill="#7F713E"/>
<path d="M18 12.5C18 11.9477 17.5523 11.5 17 11.5C16.4477 11.5 16 11.9477 16 12.5V13.5C16 14.0523 16.4477 14.5 17 14.5C17.5523 14.5 18 14.0523 18 13.5V12.5Z" fill="#7F713E"/>
<path d="M5 15.5C5.40555 15.5 5.75471 15.7414 5.91162 16.0884C6.25858 16.2453 6.5 16.5944 6.5 17C6.5 17.5523 6.05228 18 5.5 18H5C4.44772 18 4 17.5523 4 17V16.5C4 15.9477 4.44772 15.5 5 15.5Z" fill="#7F713E"/>
<path d="M18 16.5C18 15.9477 17.5523 15.5 17 15.5C16.5944 15.5 16.2453 15.7414 16.0884 16.0884C15.7414 16.2453 15.5 16.5944 15.5 17C15.5 17.5523 15.9477 18 16.5 18H17C17.5523 18 18 17.5523 18 17V16.5Z" fill="#7F713E"/>
<path d="M8.5 16C7.94771 16 7.5 16.4477 7.5 17C7.5 17.5523 7.94771 18 8.5 18H9.5C10.0523 18 10.5 17.5523 10.5 17C10.5 16.4477 10.0523 16 9.5 16H8.5Z" fill="#7F713E"/>
<path d="M12.5 16C11.9477 16 11.5 16.4477 11.5 17C11.5 17.5523 11.9477 18 12.5 18H13.5C14.0523 18 14.5 17.5523 14.5 17C14.5 16.4477 14.0523 16 13.5 16H12.5Z" fill="#7F713E"/>
<path fill-rule="evenodd" clip-rule="evenodd" d="M1 0C0.447715 0 0 0.447715 0 1V21C0 21.5523 0.447715 22 1 22H21C21.5523 22 22 21.5523 22 21V1C22 0.447715 21.5523 0 21 0H1ZM2 20V2H20V20H2Z" fill="#7F713E"/>
</symbol></svg>