<svg width="25" height="25" viewBox="0 0 25 25" fill="none" xmlns="http://www.w3.org/2000/svg">
<path d="M23.545 0.019944C23.5138 0.0279249 23.4181 0.0458818 23.3322 0.057853C22.9064 0.12569 22.2892 0.389058 21.6544 0.776129C19.5783 2.0391 16.3126 5.09377 12.3029 9.52713C11.0353 10.9298 9.60364 12.5718 8.672 13.6971C8.5177 13.8827 8.34388 14.0922 8.28528 14.162L8.17981 14.2877L7.81849 14.0942C3.43763 11.7677 1.27161 11.2071 0.379032 12.1748C0.193485 12.3743 0.109501 12.5519 0.0411413 12.8791C-0.00963996 13.1245 -0.00963996 13.1724 0.0391882 13.318C0.105594 13.5156 0.162235 13.5874 0.492313 13.8966C1.22474 14.581 2.34974 15.7642 2.99036 16.5203C4.56458 18.3839 6.11927 20.7522 8.03724 24.2099C8.17786 24.4613 8.32434 24.7047 8.36536 24.7526C8.4552 24.8563 8.56067 24.9222 8.71888 24.9721C8.82825 25.006 8.83802 25.006 8.96106 24.9721C9.13294 24.9262 9.21302 24.8803 9.31067 24.7765C9.40833 24.6728 9.43763 24.6149 9.58606 24.2318C9.75794 23.7909 10.1056 22.9389 10.3283 22.4162C12.9142 16.3268 16.0704 11.1632 19.8536 6.83359C20.7306 5.83 21.9728 4.53511 23.4376 3.09856C24.629 1.93136 24.8654 1.63407 24.9708 1.1612C25.006 0.999593 25.006 0.989617 24.9728 0.861923C24.8536 0.397039 24.5685 0.159609 23.9845 0.0379009C23.7931 -8.11042e-06 23.6466 -0.00798896 23.545 0.019944Z" fill="#BE8304"/>
</svg>
